<?xml version="1.0" encoding="UTF-8" standalone="no"?>
<svg width="24px" height="25px" viewBox="0 0 24 25" version="1.1" xmlns="http://www.w3.org/2000/svg" xmlns:xlink="http://www.w3.org/1999/xlink">
    <!-- Generator: Sketch 41.2 (35397) - http://www.bohemiancoding.com/sketch -->
    <title>ic_person</title>
    <desc>Created with Sketch.</desc>
    <defs></defs>
    <g id="Symbols" stroke="none" stroke-width="1" fill="none" fill-rule="evenodd" stroke-linecap="round" stroke-linejoin="round">
        <g id="ic_person" stroke="#000000">
            <g id="Page-1" transform="translate(1.000000, 1.000000)">
                <path d="M8.501,15.5 L0.5,20.303 L0.5,21.77 C0.5,22.174 0.831,22.504 1.233,22.504 L21.767,22.504 C22.17,22.504 22.5,22.174 22.5,21.77 L22.5,20.303 L22.5,20.301 L14.499,15.5" id="Stroke-1"></path>
                <path d="M14.499,15.5 C17.505,13.178 17.5,9.064 17.5,9.064 L17.497,4.783 C17.065,2.352 14.131,0.5 11.5,0.5 L11.5,0.502 C8.868,0.502 5.935,2.354 5.503,4.785 L5.5,9.066 C5.5,9.066 5.495,13.178 8.501,15.5" id="Stroke-3"></path>
            </g>
        </g>
    </g>
</svg>