<?xml version="1.0" encoding="UTF-8" standalone="no"?>
<svg width="24px" height="20px" viewBox="0 0 24 20" version="1.1" xmlns="http://www.w3.org/2000/svg" xmlns:xlink="http://www.w3.org/1999/xlink">
    <!-- Generator: Sketch 41.2 (35397) - http://www.bohemiancoding.com/sketch -->
    <title>ic_photo</title>
    <desc>Created with Sketch.</desc>
    <defs></defs>
    <g id="Symbols" stroke="none" stroke-width="1" fill="none" fill-rule="evenodd" stroke-linecap="round" stroke-linejoin="round">
        <g id="ic_photo" stroke="#000000">
            <g id="Page-1" transform="translate(1.000000, 1.000000)">
                <path d="M17.5,3.5 L20.5,3.5 C21.6,3.5 22.5,4.4 22.5,5.5 L22.5,16.5 C22.5,17.6 21.6,18.5 20.5,18.5 L2.5,18.5 C1.4,18.5 0.5,17.6 0.5,16.5 L0.5,5.5 C0.5,4.4 1.4,3.5 2.5,3.5 L5.5,3.5" id="Stroke-1"></path>
                <polyline id="Stroke-3" points="5.5 3.5 7.096 0.5 15.904 0.5 17.5 3.5"></polyline>
                <path d="M16,10.001 C16,7.516 13.986,5.501 11.5,5.501 C9.016,5.501 7,7.516 7,10.001 C7,12.486 9.016,14.5 11.5,14.5 C13.986,14.5 16,12.486 16,10.001 Z" id="Stroke-5"></path>
            </g>
        </g>
    </g>
</svg>